<?xml version="1.0" encoding="UTF-8" standalone="no"?>
<!DOCTYPE svg PUBLIC "-//W3C//DTD SVG 1.1//EN" "http://www.w3.org/Graphics/SVG/1.1/DTD/svg11.dtd">
<svg width="100%" height="100%" viewBox="0 0 24 24" version="1.1" xmlns="http://www.w3.org/2000/svg" xmlns:xlink="http://www.w3.org/1999/xlink" xml:space="preserve" xmlns:serif="http://www.serif.com/" style="fill-rule:evenodd;clip-rule:evenodd;stroke-linejoin:round;stroke-miterlimit:2;">
    <path d="M12,0C5.373,0 0,5.373 0,12C0,18.627 5.373,24 12,24C18.627,24 24,18.627 24,12C24,5.373 18.627,0 12,0ZM12,2C17.514,2 22,6.486 22,12C22,17.514 17.514,22 12,22C6.486,22 2,17.514 2,12C2,6.486 6.486,2 12,2ZM14.784,17.584L7.98,17.584C7.302,17.584 6.75,17.032 6.75,16.348L6.75,8.236C6.75,7.552 7.302,7 7.98,7L16.02,7C16.698,7 17.25,7.552 17.25,8.236L17.25,19L15.96,17.86L15.234,17.188L14.466,16.474L14.784,17.584ZM13.704,14.836C15.03,14.794 15.54,13.924 15.54,13.924C15.54,11.992 14.676,10.426 14.676,10.426C13.812,9.778 12.99,9.796 12.99,9.796L12.906,9.892C13.926,10.204 14.4,10.654 14.4,10.654C13.776,10.312 13.164,10.144 12.594,10.078C12.162,10.03 11.748,10.042 11.382,10.09L11.28,10.102C11.07,10.12 10.56,10.198 9.918,10.48L9.564,10.654C9.564,10.654 10.062,10.18 11.142,9.868L11.082,9.796C11.082,9.796 10.26,9.778 9.396,10.426C9.396,10.426 8.532,11.992 8.532,13.924C8.532,13.924 9.036,14.794 10.362,14.836L10.764,14.338C10.002,14.11 9.714,13.63 9.714,13.63L9.882,13.732L9.906,13.75L9.93,13.763L9.936,13.767L9.96,13.78C10.11,13.864 10.26,13.93 10.398,13.984C10.644,14.08 10.938,14.176 11.28,14.242C11.73,14.326 12.258,14.356 12.834,14.248C13.116,14.2 13.404,14.116 13.704,13.99C13.914,13.912 14.148,13.798 14.394,13.636C14.394,13.636 14.094,14.128 13.308,14.35L13.704,14.836ZM10.914,12.034C10.572,12.034 10.302,12.334 10.302,12.7C10.302,13.066 10.578,13.366 10.914,13.366C11.256,13.366 11.526,13.066 11.526,12.7C11.532,12.334 11.256,12.034 10.914,12.034ZM13.104,12.034C12.762,12.034 12.492,12.334 12.492,12.7C12.492,13.066 12.768,13.366 13.104,13.366C13.446,13.366 13.716,13.066 13.716,12.7C13.716,12.334 13.446,12.034 13.104,12.034Z" style="fill:white;"/>
</svg>
