<?xml version="1.0" encoding="UTF-8" standalone="no"?>
<!DOCTYPE svg PUBLIC "-//W3C//DTD SVG 1.1//EN" "http://www.w3.org/Graphics/SVG/1.1/DTD/svg11.dtd">
<svg width="100%" height="100%" viewBox="0 0 24 24" version="1.1" xmlns="http://www.w3.org/2000/svg" xmlns:xlink="http://www.w3.org/1999/xlink" xml:space="preserve" xmlns:serif="http://www.serif.com/" style="fill-rule:evenodd;clip-rule:evenodd;stroke-linejoin:round;stroke-miterlimit:2;">
    <path d="M16.23,7.102C14.228,6.966 9.768,6.967 7.769,7.102C5.604,7.25 5.35,8.558 5.333,12C5.35,15.436 5.603,16.75 7.77,16.898C9.769,17.033 14.229,17.034 16.231,16.898C18.396,16.75 18.651,15.441 18.668,12C18.65,8.564 18.397,7.25 16.23,7.102ZM10,14.222L10,9.778L14.778,11.996L10,14.222ZM12,2C17.514,2 22,6.486 22,12C22,17.514 17.514,22 12,22C6.486,22 2,17.514 2,12C2,6.486 6.486,2 12,2ZM12,0C5.373,0 0,5.373 0,12C0,18.627 5.373,24 12,24C18.627,24 24,18.627 24,12C24,5.373 18.627,0 12,0Z" style="fill:white;fill-rule:nonzero;"/>
</svg>
