<?xml version="1.0" encoding="UTF-8" standalone="no"?><!DOCTYPE svg PUBLIC "-//W3C//DTD SVG 1.1//EN" "http://www.w3.org/Graphics/SVG/1.1/DTD/svg11.dtd"><svg width="24px" height="24px" version="1.1" xmlns="http://www.w3.org/2000/svg" xmlns:xlink="http://www.w3.org/1999/xlink" xml:space="preserve" xmlns:serif="http://www.serif.com/" style="fill-rule:evenodd;clip-rule:evenodd;stroke-linejoin:round;stroke-miterlimit:2;"><path d="M12,2C17.514,2 22,6.486 22,12C22,17.514 17.514,22 12,22C6.486,22 2,17.514 2,12C2,6.486 6.486,2 12,2ZM12,0C5.373,0 0,5.373 0,12C0,18.627 5.373,24 12,24C18.627,24 24,18.627 24,12C24,5.373 18.627,0 12,0ZM18,11.889C18,11.16 17.404,10.566 16.671,10.566C16.313,10.566 15.99,10.709 15.751,10.939C14.846,10.344 13.621,9.964 12.266,9.916L13.008,7.582L15.016,8.053L15.013,8.082C15.013,8.678 15.5,9.164 16.1,9.164C16.699,9.164 17.186,8.679 17.186,8.082C17.186,7.485 16.698,7 16.099,7C15.639,7 15.247,7.287 15.089,7.69L12.925,7.183C12.831,7.16 12.734,7.215 12.705,7.307L11.878,9.91C10.459,9.927 9.173,10.309 8.228,10.922C7.991,10.703 7.676,10.566 7.328,10.566C6.596,10.567 6,11.16 6,11.889C6,12.374 6.267,12.794 6.659,13.025C6.633,13.166 6.616,13.308 6.616,13.454C6.615,15.409 9.02,17 11.975,17C14.931,17 17.335,15.409 17.335,13.454C17.335,13.317 17.32,13.182 17.297,13.049C17.713,12.825 18,12.392 18,11.889ZM9.388,12.797C9.388,12.363 9.743,12.009 10.179,12.009C10.615,12.009 10.969,12.362 10.969,12.797C10.969,13.231 10.614,13.584 10.179,13.584C9.743,13.585 9.388,13.232 9.388,12.797ZM13.918,15.132C13.52,15.528 12.894,15.721 12.006,15.721L11.999,15.72L11.992,15.721C11.104,15.721 10.478,15.528 10.08,15.132C10.007,15.06 10.007,14.942 10.08,14.87C10.152,14.798 10.271,14.798 10.343,14.87C10.668,15.193 11.207,15.351 11.992,15.351L11.999,15.352L12.006,15.351C12.79,15.351 13.33,15.194 13.655,14.87C13.728,14.798 13.845,14.798 13.918,14.87C13.991,14.942 13.991,15.06 13.918,15.132ZM13.824,13.585C13.388,13.585 13.034,13.232 13.034,12.798C13.034,12.364 13.389,12.01 13.824,12.01C14.26,12.01 14.614,12.363 14.614,12.798C14.614,13.232 14.26,13.585 13.824,13.585Z" style="fill:white;fill-rule:nonzero;"/></svg>