<?xml version="1.0" encoding="UTF-8" standalone="no"?>
<!DOCTYPE svg PUBLIC "-//W3C//DTD SVG 1.1//EN" "http://www.w3.org/Graphics/SVG/1.1/DTD/svg11.dtd">
<svg width="100%" height="100%" viewBox="0 0 24 24" version="1.1" xmlns="http://www.w3.org/2000/svg" xmlns:xlink="http://www.w3.org/1999/xlink" xml:space="preserve" xmlns:serif="http://www.serif.com/" style="fill-rule:evenodd;clip-rule:evenodd;stroke-linejoin:round;stroke-miterlimit:2;">
    <path d="M12,2C17.514,2 22,6.486 22,12C22,17.514 17.514,22 12,22C6.486,22 2,17.514 2,12C2,6.486 6.486,2 12,2ZM12,0C5.373,0 0,5.373 0,12C0,18.627 5.373,24 12,24C18.627,24 24,18.627 24,12C24,5.373 18.627,0 12,0ZM8.914,8.267C8.614,8.939 8.733,10.143 8.781,10.985C8.457,11.164 8.041,10.849 7.806,10.849C7.561,10.849 7.268,11.01 7.223,11.25C7.19,11.423 7.267,11.675 7.823,11.895C8.038,11.98 8.55,12.08 8.668,12.359C8.834,12.751 7.813,14.561 6.209,14.825C6.083,14.845 5.993,14.957 6,15.084C6.028,15.572 7.121,15.762 7.605,15.838C7.655,15.905 7.695,16.188 7.758,16.404C7.786,16.501 7.86,16.616 8.049,16.616C8.295,16.616 8.705,16.426 9.418,16.544C10.117,16.661 10.774,17.651 12.035,17.651C13.208,17.651 13.907,16.655 14.58,16.544C14.969,16.479 15.304,16.5 15.678,16.573C15.935,16.623 16.166,16.652 16.24,16.399C16.304,16.18 16.344,15.903 16.392,15.838C16.872,15.763 17.97,15.573 17.998,15.085C18.005,14.958 17.915,14.846 17.79,14.826C16.213,14.566 15.161,12.762 15.331,12.36C15.449,12.082 15.957,11.982 16.176,11.896C16.583,11.735 16.787,11.538 16.782,11.31C16.776,11.018 16.425,10.843 16.166,10.843C15.902,10.843 15.524,11.155 15.217,10.986C15.265,10.137 15.383,8.938 15.084,8.267C14.517,6.995 13.254,6.351 11.992,6.351C10.74,6.35 9.486,6.984 8.914,8.267Z" style="fill:white;fill-rule:nonzero;"/>
</svg>
